<svg width="150" height="150" viewBox="0 0 150 150" xmlns="http://www.w3.org/2000/svg"><g><path d="M150 0H0V150H150V0Z" fill="#003241"/><g fill="#FF6418"><path d="M41.3351 54.2963C41.498 54.2166 41.6561 54.1303 41.8093 54.0443C41.8871 54.1472 41.9685 54.2457 42.0642 54.34L51.0328 63.3405C51.594 62.6801 52.4203 62.264 53.3158 62.264C53.6058 62.264 53.8945 62.3057 54.1724 62.3888L55.2906 62.7226L55.9866 60.3733L46.0186 50.3714C45.8604 50.2145 45.6904 50.0827 45.5069 49.97L45.5303 49.8665C45.554 49.7714 45.5847 49.7 45.6135 49.6178C45.6364 49.5565 45.6606 49.4921 45.6833 49.4246C45.7124 49.3592 45.7412 49.2897 45.7702 49.2172C45.8197 49.0965 45.8724 48.9656 45.94 48.8326L46.1272 48.4512L46.3405 48.0733C46.4305 47.8998 46.5321 47.749 46.648 47.5766C46.7101 47.4854 46.7724 47.3904 46.8358 47.2942C46.8918 47.2191 46.9505 47.1425 47.0084 47.0632C47.1536 46.8709 47.2891 46.6884 47.4362 46.5307L47.5389 46.417C47.7335 46.204 47.9281 45.9837 48.1547 45.796C48.2268 45.7315 48.2811 45.6814 48.3384 45.6306C48.4149 45.5591 48.4925 45.486 48.5753 45.4206L49.0122 45.102C49.027 45.0935 49.0369 45.0842 49.0467 45.0746C49.2216 44.9346 49.4313 44.8159 49.6555 44.6906C49.7453 44.6414 49.8323 44.5927 49.9205 44.54C50.1081 44.4193 50.3015 44.3413 50.5074 44.2586C50.6113 44.2148 50.7127 44.1733 50.8166 44.1286C50.8763 44.1048 50.9374 44.0772 50.9975 44.0505C51.0627 44.0236 51.1269 43.9912 51.1921 43.9749L51.6726 43.8395C51.7679 43.8158 51.8788 43.7837 51.9906 43.7513C52.1468 43.7055 52.298 43.6621 52.3996 43.6484L53.6858 43.4596C53.873 43.4323 54.0388 43.345 54.1665 43.2186C54.3058 43.0771 54.3993 42.8857 54.4125 42.6753C54.44 42.274 54.1859 41.9073 53.8019 41.7942L52.5343 41.4324C52.3138 41.3661 52.0797 41.3316 51.8541 41.2984C51.7535 41.2828 51.6508 41.268 51.5421 41.2498L50.9872 41.1636C50.8131 41.1352 50.6499 41.1311 50.5046 41.1282C50.4475 41.1261 50.3899 41.125 50.3298 41.122C50.1846 41.12 50.0792 41.1143 49.9706 41.1093C49.6473 41.0957 49.2818 41.0814 48.8934 41.1322L48.6474 41.1521C48.2756 41.183 47.8498 41.2175 47.4221 41.3204L46.7365 41.4595C46.5257 41.5118 46.3492 41.5665 46.1723 41.6217L45.9559 41.6881C45.4601 41.8261 44.9913 42.0235 44.5372 42.2156L44.4749 42.2418C44.0855 42.4036 43.732 42.5928 43.3903 42.7754L43.1068 42.9269C43.0871 42.9367 43.0719 42.948 43.0521 42.9584C42.9426 43.0268 42.8304 43.0943 42.7215 43.1609C42.4257 43.3406 42.1176 43.5267 41.833 43.7388L41.3588 44.0783C41.3488 44.0869 41.3023 44.1208 41.2906 44.1304L40.8214 44.5063C40.695 44.6042 40.5784 44.7036 40.4666 44.8016C39.6215 44.9427 38.8095 45.3362 38.1584 45.9913L37.1536 46.9977C36.6911 47.4624 36.2572 48.1139 35.8998 48.8439C34.3247 48.5404 32.1875 50.874 29 54.0712L36.1276 61.219C38.5713 58.7661 41.6397 55.8766 41.3351 54.2963Z"/><path d="M97.226 53.853L101.716 54.7244L106.287 48.9346C107.121 47.884 108.509 47.403 109.805 47.7105V45.2172H103.055V50.635H95.7849L97.226 53.853Z" /><path d="M56.4763 55.3159L57.862 50.6341H51.8116L56.4763 55.3159Z"/><path d="M109.805 79.752V62.3973C109.683 62.5642 109.563 62.7328 109.434 62.8959C107.555 65.2761 105.062 66.9892 102.268 67.9014H103.057V79.752H87.2351H84.9724L93.4465 68.1592C93.6002 67.9619 93.7418 67.7579 93.873 67.5493C98.6074 68.7399 103.816 67.1542 107.038 63.0745C109.389 60.0965 110.304 56.2517 109.544 52.5235C109.46 52.1009 109.137 51.7666 108.72 51.6658C108.301 51.5668 107.863 51.7184 107.595 52.0553L102.133 58.9743L95.0317 57.595L92.0667 50.9738L97.5313 44.0542C97.7987 43.7168 97.8453 43.2532 97.6527 42.8687C97.4596 42.4826 97.0621 42.2446 96.6337 42.2566C92.8414 42.3688 89.3195 44.1404 86.9679 47.1182C83.7495 51.1959 83.4016 56.6433 85.634 60.9934C85.4651 61.1719 85.2991 61.3612 85.1394 61.5626L74.1735 74.6515L76.8274 77.3147C77.5151 78.0046 77.9959 78.8407 78.253 79.7518H77.0699C76.8535 79.1542 76.5116 78.5931 76.0322 78.1134L60.9371 62.9653L60.5447 64.2858L61.5676 64.5912C62.3373 64.8198 62.9717 65.3358 63.3539 66.0436C63.7357 66.7511 63.8205 67.5669 63.5921 68.3385C63.4688 68.7519 63.2572 69.1333 62.9778 69.4554C63.0567 70.1631 62.9967 70.88 62.7888 71.5693L61.4333 76.1499L65.0232 79.7496H63.873H61.3604H58.839L61.5046 70.7455C61.7336 69.979 61.7142 69.1968 61.4998 68.484C61.8753 68.2917 62.1769 67.9508 62.3072 67.5126C62.557 66.6638 62.0751 65.7701 61.2281 65.5188L58.8588 64.8111L65.2991 43.0617L65.5019 43.1221L67.1702 39.8814L67.8246 34.8271L65.0441 33.9993L62.8801 38.605L62.5325 42.2386L62.7383 42.3002L56.2978 64.0509L53.8318 63.3161C52.9878 63.0639 52.0954 63.5478 51.8446 64.3967C51.7238 64.807 51.7735 65.2266 51.9526 65.5811C51.3593 66.0641 50.8973 66.7272 50.663 67.5176L47.0459 79.752H44.6351H43.6618V67.9025H48.1438L48.9449 65.193C49.1467 64.5142 49.2848 64.3275 49.6873 63.7614L42.4517 56.3234C41.4608 57.6926 40.4797 59.113 38.9536 60.6329L36.9134 62.6779V79.752H34.7181V103.455C34.7181 110.934 40.7639 116.998 48.219 116.998H98.5021C105.958 116.998 112 110.935 112 103.455V79.752H109.805ZM56.82 71.3335C57.0862 70.4314 58.0307 69.9193 58.9297 70.1861C59.8249 70.4537 60.3379 71.4012 60.0709 72.3025L57.8668 79.7522H54.3276L56.82 71.3335ZM51.3525 69.7042C51.6188 68.8037 52.5635 68.2902 53.4618 68.5571C54.3598 68.8244 54.8715 69.7717 54.6043 70.6725L51.9165 79.7522H48.3781L51.3525 69.7042Z"/><path d="M65.5774 50.6341L62.966 59.454L71.388 67.9025H75.9023L83.4108 58.9415C82.3796 56.266 82.1466 53.385 82.6574 50.6339L65.5774 50.6341Z"/></g></g></svg>
