<svg xmlns="http://www.w3.org/2000/svg" viewBox="0 0 512 512"><style>.bg{fill:#003241} @media(prefers-color-scheme:light){.bg{fill:#003241}} @media(prefers-color-scheme:dark){.bg{fill:#e6e4da}} .arrow{fill:#fff} @media(prefers-color-scheme:light){.arrow{fill:#fff}} @media(prefers-color-scheme:dark){.arrow{fill:#003241}}</style><rect class="bg" width="512" height="512" rx="256" fill="#003241"/><path class="arrow" d="M373.615 243.914L281.424 340.971L278.321 257.973C278.167 253.804 273.367 251.819 270.556 254.778L242.22 284.61C239.477 287.498 237.917 291.414 237.917 295.492L237.608 407.889C237.591 413.357 241.791 417.778 246.985 417.76L353.747 417.436C357.639 417.418 361.341 415.793 364.084 412.906L392.437 383.056C395.232 380.115 393.346 375.061 389.403 374.881L310.566 371.614L402.74 274.576C405.346 271.833 405.363 267.375 402.74 264.614L383.043 243.878C380.438 241.171 376.221 241.171 373.615 243.914Z"/><path d="M138.39 268.116L230.581 171.059L233.684 254.057C233.838 258.226 238.638 260.211 241.449 257.251L269.786 227.42C272.528 224.532 274.088 220.616 274.088 216.537L274.397 104.141C274.414 98.6728 270.214 94.2513 265.02 94.2694L158.258 94.5942C154.384 94.5942 150.664 96.2365 147.921 99.124L119.585 128.956C116.791 131.897 118.676 136.95 122.619 137.131L201.456 140.397L109.265 237.454C106.66 240.197 106.643 244.655 109.265 247.416L128.962 268.152C131.567 270.859 135.784 270.859 138.39 268.116Z" fill="#FF6418"/></svg>